<!-- DMH Logo SVG - Inline version for all pages -->
<svg width="150" height="150" viewBox="0 0 512 512" xmlns="http://www.w3.org/2000/svg">
  <!-- Desert Mountain Healing IOP Logo -->
  <!-- New Mexico Zia Sun Symbol -->
  <circle cx="256" cy="256" r="80" fill="none" stroke="#5B9BD5" stroke-width="8"/>
  
  <!-- Top rays -->
  <rect x="248" y="120" width="16" height="60" fill="#5B9BD5" rx="8"/>
  <rect x="230" y="130" width="12" height="50" fill="#5B9BD5" rx="6"/>
  <rect x="270" y="130" width="12" height="50" fill="#5B9BD5" rx="6"/>
  <rect x="214" y="140" width="10" height="40" fill="#5B9BD5" rx="5"/>
  <rect x="288" y="140" width="10" height="40" fill="#5B9BD5" rx="5"/>
  
  <!-- Bottom rays -->
  <rect x="248" y="332" width="16" height="60" fill="#5B9BD5" rx="8"/>
  <rect x="230" y="332" width="12" height="50" fill="#5B9BD5" rx="6"/>
  <rect x="270" y="332" width="12" height="50" fill="#5B9BD5" rx="6"/>
  <rect x="214" y="332" width="10" height="40" fill="#5B9BD5" rx="5"/>
  <rect x="288" y="332" width="10" height="40" fill="#5B9BD5" rx="5"/>
  
  <!-- Left rays -->
  <rect x="120" y="248" width="60" height="16" fill="#5B9BD5" rx="8"/>
  <rect x="130" y="230" width="50" height="12" fill="#5B9BD5" rx="6"/>
  <rect x="130" y="270" width="50" height="12" fill="#5B9BD5" rx="6"/>
  <rect x="140" y="214" width="40" height="10" fill="#5B9BD5" rx="5"/>
  <rect x="140" y="288" width="40" height="10" fill="#5B9BD5" rx="5"/>
  
  <!-- Right rays -->
  <rect x="332" y="248" width="60" height="16" fill="#5B9BD5" rx="8"/>
  <rect x="332" y="230" width="50" height="12" fill="#5B9BD5" rx="6"/>
  <rect x="332" y="270" width="50" height="12" fill="#5B9BD5" rx="6"/>
  <rect x="332" y="214" width="40" height="10" fill="#5B9BD5" rx="5"/>
  <rect x="332" y="288" width="40" height="10" fill="#5B9BD5" rx="5"/>
  
  <!-- Mountains -->
  <path d="M 100 400 L 200 300 L 300 380 L 412 400 Z" fill="#A8D0E6" opacity="0.6"/>
  <path d="M 150 400 L 256 280 L 362 400 Z" fill="#A8D0E6" opacity="0.5"/>
  
  <!-- Text -->
  <text x="256" y="450" font-family="Arial, sans-serif" font-size="24" fill="#5B9BD5" text-anchor="middle" font-weight="bold">DESERT MOUNTAIN</text>
  <text x="256" y="475" font-family="Arial, sans-serif" font-size="24" fill="#5B9BD5" text-anchor="middle" font-weight="bold">HEALING IOP</text>
</svg>
